<?xml version="1.0" encoding="UTF-8" standalone="no" ?>
<!DOCTYPE svg PUBLIC "-//W3C//DTD SVG 1.1//EN" "http://www.w3.org/Graphics/SVG/1.1/DTD/svg11.dtd">
<svg xmlns="http://www.w3.org/2000/svg" xmlns:xlink="http://www.w3.org/1999/xlink" version="1.1" width="640" height="640" viewBox="0 0 640 640" xml:space="preserve">
<desc>Created with Fabric.js 4.6.0</desc>
<defs>
</defs>
<g transform="matrix(1 0 0 1 50 50)" id="q0HYZ1PPgX9FzXwNf85T9"  >
<path style="stroke: rgb(122,125,213); stroke-width: 0; stroke-dasharray: none; stroke-linecap: butt; stroke-dashoffset: 0; stroke-linejoin: miter; stroke-miterlimit: 4; fill: rgb(241,237,233); fill-rule: nonzero; opacity: 1;" vector-effect="non-scaling-stroke"  transform=" translate(-50, -50)" d="M 50 0 C 77.6 0 100 22.4 100 50 C 100 77.6 77.6 100 50 100 C 22.4 100 0 77.6 0 50 C 0 22.4 22.4 0 50 0 z" stroke-linecap="round" />
</g>
<g transform="matrix(1 0 0 1 590 50)" id="iw9JKpVDE01fdWNFN3wDi"  >
<path style="stroke: rgb(122,125,213); stroke-width: 0; stroke-dasharray: none; stroke-linecap: butt; stroke-dashoffset: 0; stroke-linejoin: miter; stroke-miterlimit: 4; fill: rgb(241,237,233); fill-rule: nonzero; opacity: 1;" vector-effect="non-scaling-stroke"  transform=" translate(-50, -50)" d="M 50 0 C 77.6 0 100 22.4 100 50 C 100 77.6 77.6 100 50 100 C 22.4 100 0 77.6 0 50 C 0 22.4 22.4 0 50 0 z" stroke-linecap="round" />
</g>
<g transform="matrix(1 0 0 1 50 320)" id="En35i8kL-6ojWzrDvwcPJ"  >
<path style="stroke: rgb(122,125,213); stroke-width: 0; stroke-dasharray: none; stroke-linecap: butt; stroke-dashoffset: 0; stroke-linejoin: miter; stroke-miterlimit: 4; fill: rgb(241,237,233); fill-rule: nonzero; opacity: 1;" vector-effect="non-scaling-stroke"  transform=" translate(-50, -50)" d="M 50 0 C 77.6 0 100 22.4 100 50 C 100 77.6 77.6 100 50 100 C 22.4 100 0 77.6 0 50 C 0 22.4 22.4 0 50 0 z" stroke-linecap="round" />
</g>
<g transform="matrix(1 0 0 1 50 590)" id="6RzeKloflTzyVj_E4EG1H"  >
<path style="stroke: rgb(122,125,213); stroke-width: 0; stroke-dasharray: none; stroke-linecap: butt; stroke-dashoffset: 0; stroke-linejoin: miter; stroke-miterlimit: 4; fill: rgb(241,237,233); fill-rule: nonzero; opacity: 1;" vector-effect="non-scaling-stroke"  transform=" translate(-50, -50)" d="M 50 0 C 77.6 0 100 22.4 100 50 C 100 77.6 77.6 100 50 100 C 22.4 100 0 77.6 0 50 C 0 22.4 22.4 0 50 0 z" stroke-linecap="round" />
</g>
<g transform="matrix(1 0 0 1 590 320)" id="EDz77Z22nI4SkH3qQ1Kbm"  >
<path style="stroke: rgb(122,125,213); stroke-width: 0; stroke-dasharray: none; stroke-linecap: butt; stroke-dashoffset: 0; stroke-linejoin: miter; stroke-miterlimit: 4; fill: rgb(241,237,233); fill-rule: nonzero; opacity: 1;" vector-effect="non-scaling-stroke"  transform=" translate(-50, -50)" d="M 50 0 C 77.6 0 100 22.4 100 50 C 100 77.6 77.6 100 50 100 C 22.4 100 0 77.6 0 50 C 0 22.4 22.4 0 50 0 z" stroke-linecap="round" />
</g>
<g transform="matrix(1 0 0 1 590 590)" id="qelV56B_dhS6NPPsBtdTR"  >
<path style="stroke: rgb(122,125,213); stroke-width: 0; stroke-dasharray: none; stroke-linecap: butt; stroke-dashoffset: 0; stroke-linejoin: miter; stroke-miterlimit: 4; fill: rgb(241,237,233); fill-rule: nonzero; opacity: 1;" vector-effect="non-scaling-stroke"  transform=" translate(-50, -50)" d="M 50 0 C 77.6 0 100 22.4 100 50 C 100 77.6 77.6 100 50 100 C 22.4 100 0 77.6 0 50 C 0 22.4 22.4 0 50 0 z" stroke-linecap="round" />
</g>
<g transform="matrix(1 0 0 1 320 50)" id="1HS1IzgtfRf_sML6BEiqg"  >
<path style="stroke: rgb(204,155,114); stroke-width: 0; stroke-dasharray: none; stroke-linecap: butt; stroke-dashoffset: 0; stroke-linejoin: miter; stroke-miterlimit: 4; fill: rgb(241,237,233); fill-rule: nonzero; opacity: 1;" vector-effect="non-scaling-stroke"  transform=" translate(-270, -50)" d="M 0 0 L 540 0 L 540 100 L 0 100 z" stroke-linecap="round" />
</g>
<g transform="matrix(1 0 0 1 320 320)" id="eNbh-qyg5JRXSHnEsXFnz"  >
<path style="stroke: rgb(204,155,114); stroke-width: 0; stroke-dasharray: none; stroke-linecap: butt; stroke-dashoffset: 0; stroke-linejoin: miter; stroke-miterlimit: 4; fill: rgb(241,237,233); fill-rule: nonzero; opacity: 1;" vector-effect="non-scaling-stroke"  transform=" translate(-270, -50)" d="M 0 0 L 540 0 L 540 100 L 0 100 z" stroke-linecap="round" />
</g>
<g transform="matrix(1 0 0 1 320 590)" id="-5j72ws4h4FXuvTWfhF_y"  >
<path style="stroke: rgb(204,155,114); stroke-width: 0; stroke-dasharray: none; stroke-linecap: butt; stroke-dashoffset: 0; stroke-linejoin: miter; stroke-miterlimit: 4; fill: rgb(241,237,233); fill-rule: nonzero; opacity: 1;" vector-effect="non-scaling-stroke"  transform=" translate(-270, -50)" d="M 0 0 L 540 0 L 540 100 L 0 100 z" stroke-linecap="round" />
</g>
</svg>